<?xml version="1.0" encoding="UTF-8" standalone="no"?>
<!-- Created with Inkscape (http://www.inkscape.org/) -->

<svg
   width="384"
   height="384"
   viewBox="0 0 101.6 101.6"
   version="1.1"
   id="svg1"
   inkscape:export-filename="bitmap.png"
   inkscape:export-xdpi="96"
   inkscape:export-ydpi="96"
   inkscape:version="1.3.2 (091e20e, 2023-11-25, custom)"
   sodipodi:docname="rat-tilemap.svg"
   xml:space="preserve"
   xmlns:inkscape="http://www.inkscape.org/namespaces/inkscape"
   xmlns:sodipodi="http://sodipodi.sourceforge.net/DTD/sodipodi-0.dtd"
   xmlns="http://www.w3.org/2000/svg"
   xmlns:svg="http://www.w3.org/2000/svg"><sodipodi:namedview
     id="namedview1"
     pagecolor="#505050"
     bordercolor="#eeeeee"
     borderopacity="1"
     inkscape:showpageshadow="0"
     inkscape:pageopacity="0"
     inkscape:pagecheckerboard="0"
     inkscape:deskcolor="#505050"
     inkscape:document-units="mm"
     inkscape:zoom="1.5643379"
     inkscape:cx="157.57465"
     inkscape:cy="205.51826"
     inkscape:window-width="1920"
     inkscape:window-height="1009"
     inkscape:window-x="-8"
     inkscape:window-y="-8"
     inkscape:window-maximized="1"
     inkscape:current-layer="layer1" /><defs
     id="defs1" /><g
     inkscape:label="Layer 1"
     inkscape:groupmode="layer"
     id="layer1"><g
       id="rect1"><path
         style="color:#000000;fill:#3a1709;stroke-linecap:round;stroke-linejoin:round;-inkscape-stroke:none;paint-order:stroke fill markers;fill-opacity:1"
         d="m 23.851562,8.5839844 c -0.09236,-0.010295 -0.185707,-0.00767 -0.277343,0.00781 l -6.804688,1.1367187 c -0.01373,0.00232 -0.0274,0.00492 -0.04102,0.00781 L 11.585938,10.8125 c -0.492443,0.102667 -0.831996,0.555125 -0.792969,1.056641 l 0.40625,5.142578 c -2.3e-5,0.0039 -2.3e-5,0.0078 0,0.01172 l 0.501953,5.548829 -1.597656,5.164062 c -0.04841,0.157541 -0.05713,0.324603 -0.02539,0.486328 l 1.109375,5.701172 -0.394531,5.007813 c -0.04697,0.603351 0.448495,1.109846 1.052734,1.076171 l 4.980469,-0.279296 4.919922,1.347656 c 0.228253,0.06217 0.471153,0.04141 0.685547,-0.05859 l 5.30664,-2.464844 5.9375,1.150391 c 0.04452,0.0083 0.08954,0.01348 0.134766,0.01563 l 5.142578,0.289062 c 0.595818,0.03351 1.088201,-0.458869 1.054687,-1.054687 L 39.71875,33.810547 c -0.0027,-0.05453 -0.0099,-0.10875 -0.02148,-0.16211 l -1.03125,-4.615234 2.210937,-7.628906 c 0.05258,-0.180399 0.05327,-0.371961 0.002,-0.552735 l -1.15039,-4.03125 0.279296,-4.974609 c 0.02688,-0.492919 -0.309911,-0.93172 -0.793019,-1.033203 L 34.072266,9.7363281 c -0.03099,-0.00669 -0.06227,-0.011905 -0.09375,-0.015625 z m -0.08594,2.0039066 9.943359,1.115234 4.253907,0.890625 -0.240235,4.283203 c -0.0061,0.111325 0.0064,0.22289 0.03711,0.330078 l 1.117187,3.916016 -2.203125,7.599609 c -0.04681,0.161424 -0.05219,0.332043 -0.01563,0.496094 l 1.068359,4.785156 0.222657,3.945313 -3.958985,-0.222657 -6.189453,-1.199218 c -0.20651,-0.04018 -0.420431,-0.0142 -0.611328,0.07422 l -5.269531,2.447266 -4.722656,-1.292969 c -0.104277,-0.0283 -0.21245,-0.03951 -0.320313,-0.0332 l -4,0.22461 0.316406,-4.001954 c 0.007,-0.09014 0.0017,-0.180807 -0.01563,-0.269531 l -1.089843,-5.589844 1.582031,-5.113281 c 0.03859,-0.124362 0.05252,-0.255063 0.04102,-0.384765 l -0.519532,-5.738282 -0.333984,-4.259765 4.259765,-0.892578 z"
         id="path9"
         sodipodi:nodetypes="ccccccccccccccccccccccccccccccccccccccccccccccccccccccccccc" /><path
         style="color:#000000;fill:#662910;stroke-linecap:round;stroke-linejoin:round;-inkscape-stroke:none;paint-order:stroke fill markers;fill-opacity:1"
         d="M 0,0 V 16.933333 33.866667 50.8 H 16.933333 33.866667 50.8 V 33.866667 16.933333 0 H 33.866667 16.933333 Z m 23.739636,9.5782267 10.127031,1.1363643 5.142838,1.075904 -0.288871,5.142838 1.196309,4.191993 -2.283581,7.874971 1.087272,4.86637 0.288871,5.142838 -5.142838,-0.288871 -6.255949,-1.211296 -5.601209,2.601392 -5.076176,-1.390096 -5.142838,0.288871 0.405143,-5.142838 -1.136365,-5.835303 1.655196,-5.353162 -0.518831,-5.744869 -0.405143,-5.142838 5.142838,-1.075904 z"
         id="path10"
         inkscape:label="path10" /></g><g
       id="rect1-3"
       transform="matrix(0.50000002,0,0,0.50000002,-31.485417,87.577083)" /><g
       id="rect1-3-3"
       transform="matrix(0.50000002,0,0,0.50000002,6.2654328,84.467723)" /><g
       id="rect1-3-3-3"
       transform="matrix(0.50000002,0,0,0.50000002,-30.427083,115.09376)" /><g
       id="rect1-3-3-3-3"
       transform="matrix(0.50000002,0,0,0.50000002,-64.558333,110.59584)" /><g
       id="rect1-3-3-7"
       transform="matrix(0.50000002,0,0,0.50000002,2.6458333,115.35834)" /><g
       id="rect1-3-3-6"
       transform="matrix(0.50000002,0,0,0.50000002,38.1,114.82918)" /><g
       id="rect1-3-3-4"
       transform="matrix(0.50000002,0,0,0.50000002,37.835417,84.93126)" /><rect
       style="fill:#662910;fill-opacity:1;stroke-width:1.99999;stroke-linecap:round;stroke-linejoin:round"
       id="rect1-6-7-2-34"
       width="16.933199"
       height="16.933281"
       x="50.799599"
       y="0"
       rx="0"
       ry="0" /><g
       id="rect1-6-7-2-34-4-4"><path
         style="color:#000000;fill:#662910;stroke-linecap:round;stroke-linejoin:round;-inkscape-stroke:none;fill-opacity:1"
         d="M 50.8,16.933333 V 33.866667 L 67.733333,16.933333 Z m 16.933333,0 16.933334,16.933334 V 16.933333 Z M 84.666667,33.866667 67.733333,50.8 H 84.666667 Z M 67.733333,50.8 50.8,33.866667 V 50.8 Z"
         id="path11" /><path
         id="path12"
         style="color:#000000;fill:#3a1709;stroke-linecap:round;stroke-linejoin:round;-inkscape-stroke:none;fill-opacity:1"
         d="M 67.232589,16.933333 50.8,33.367989 v 0.998389 L 67.231555,50.8 h 1.001489 L 84.666667,34.366378 V 33.367989 L 68.232011,16.933333 Z m -0.707451,0.500228 -15.224393,15.226461 z m 2.414323,0 15.226461,15.226461 z M 67.7323,17.640784 83.959216,33.867183 67.7323,50.093583 51.507967,33.867183 Z M 51.300745,35.074345 66.525138,50.300806 Z m 32.865177,0 -15.226461,15.226461 z" /></g><path
       id="rect2-6-0"
       style="fill:#662910;fill-opacity:1;stroke:#3a1709;stroke-width:0.999994;stroke-linecap:round;stroke-linejoin:round;stroke-dasharray:none;stroke-opacity:0.97647059"
       d="m 11.702602,63.146045 5.142581,-1.076362 6.806436,-1.136159 10.126764,1.136159 5.142599,1.076362 -0.288504,5.142614 1.195953,4.191877 -2.283174,7.874916 1.087221,4.866487 0.288504,5.142618 -5.142599,-0.288504 -6.255797,-1.211523 -5.601256,2.601474 -5.076147,-1.389951 -5.142581,0.288504 0.404717,-5.142618 -1.136151,-5.835534 1.654996,-5.353017 -0.518845,-5.744729 z"
       sodipodi:nodetypes="cccccccccccccccccccc" /><path
       id="path7"
       style="fill:#662910;fill-opacity:1;stroke:#3a1709;stroke-width:1.99999;stroke-linecap:round;stroke-linejoin:bevel;stroke-opacity:1;paint-order:stroke fill markers"
       d="m 67.732798,55.654311 -9.968305,2.827725 -2.11045,9.251087 1.453131,8.466639 10.625624,2.247917 10.243221,-2.247917 1.95232,-8.466639 -3.728942,-8.466642 z" /></g></svg>
